STARTFONT 2.1
COMMENT $XConsortium: luBIS10.bdf,v 1.7 94/04/02 16:22:17 gildea Exp $
COMMENT  (c) Copyright Bigelow & Holmes 1986, 1985. Lucida is a registered
COMMENT  trademark of Bigelow & Holmes. See LEGAL NOTICE file for terms 
COMMENT  of the license. 
COMMENT  
COMMENT  Translation to ISO8859-2 by Cub Soft;  Petr.Kolar@vslib.cz
COMMENT  
FONT -B&H-Lucida-Bold-I-Normal-Sans-14-100-100-100-P-90-ISO8859-2
SIZE 10 100 100
FONTBOUNDINGBOX 28 15 -9 -3
STARTPROPERTIES 20
COMMENT Begin LogicalFontDescription
FONTNAME_REGISTRY ""
FOUNDRY "B&H"
FAMILY_NAME "Lucida"
WEIGHT_NAME "Bold"
SLANT "I"
SETWIDTH_NAME "Normal"
ADD_STYLE_NAME "Sans"
PIXEL_SIZE 14
POINT_SIZE 100
RESOLUTION_X 100
RESOLUTION_Y 100
SPACING "P"
AVERAGE_WIDTH 90
CHARSET_REGISTRY "ISO8859"
CHARSET_ENCODING "2"
COMMENT END LogicalFontDescription
FONT_ASCENT 13
FONT_DESCENT 3
DEFAULT_CHAR 0
COPYRIGHT "Copyright Bigelow & Holmes 1986, 1985., Copyright 1996 Cub Soft"
FACE_NAME "Lucida Sans Bold Italic"
ENDPROPERTIES
CHARS 191
STARTCHAR space
ENCODING 32
SWIDTH 343 0
DWIDTH 5 0
BBX 1 1 0 0
BITMAP
00
ENDCHAR
STARTCHAR exclam
ENCODING 33
SWIDTH 343 0
DWIDTH 5 0
BBX 5 10 1 0
BITMAP
38
38
30
30
70
60
60
00
00
e0
ENDCHAR
STARTCHAR quotedbl
ENCODING 34
SWIDTH 530 0
DWIDTH 7 0
BBX 6 4 2 6
BITMAP
cc
cc
cc
cc
ENDCHAR
STARTCHAR numbersign
ENCODING 35
SWIDTH 687 0
DWIDTH 10 0
BBX 9 10 1 0
BITMAP
0480
0900
0900
7f80
1200
2400
ff00
4800
4800
9000
ENDCHAR
STARTCHAR dollar
ENCODING 36
SWIDTH 687 0
DWIDTH 10 0
BBX 8 14 2 -2
BITMAP
04
0c
1f
3f
24
38
3c
1e
16
16
fe
fc
30
30
ENDCHAR
STARTCHAR percent
ENCODING 37
SWIDTH 908 0
DWIDTH 13 0
BBX 12 10 1 0
BITMAP
7030
d840
d880
d900
7200
04e0
09b0
1130
21b0
c0e0
ENDCHAR
STARTCHAR ampersand
ENCODING 38
SWIDTH 816 0
DWIDTH 11 0
BBX 11 10 1 0
BITMAP
0f00
1880
1980
1b00
3e20
6460
c4c0
c280
e380
7fc0
ENDCHAR
STARTCHAR apostrophe
ENCODING 39
SWIDTH 265 0
DWIDTH 4 0
BBX 4 4 2 6
BITMAP
70
f0
60
e0
ENDCHAR
STARTCHAR parenleft
ENCODING 40
SWIDTH 386 0
DWIDTH 5 0
BBX 5 13 1 -3
BITMAP
08
18
30
60
60
e0
c0
c0
c0
c0
c0
60
20
ENDCHAR
STARTCHAR parenright
ENCODING 41
SWIDTH 386 0
DWIDTH 5 0
BBX 5 13 1 -3
BITMAP
20
30
18
18
18
18
18
38
30
30
60
c0
80
ENDCHAR
STARTCHAR asterisk
ENCODING 42
SWIDTH 464 0
DWIDTH 6 0
BBX 5 5 2 5
BITMAP
30
68
d8
d0
50
ENDCHAR
STARTCHAR plus
ENCODING 43
SWIDTH 687 0
DWIDTH 10 0
BBX 8 8 2 0
BITMAP
08
08
08
ff
10
10
10
10
ENDCHAR
STARTCHAR comma
ENCODING 44
SWIDTH 343 0
DWIDTH 5 0
BBX 4 5 0 -3
BITMAP
70
f0
30
60
c0
ENDCHAR
STARTCHAR minus
ENCODING 45
SWIDTH 687 0
DWIDTH 10 0
BBX 8 1 2 4
BITMAP
ff
ENDCHAR
STARTCHAR period
ENCODING 46
SWIDTH 343 0
DWIDTH 5 0
BBX 3 2 1 0
BITMAP
e0
e0
ENDCHAR
STARTCHAR slash
ENCODING 47
SWIDTH 596 0
DWIDTH 8 0
BBX 11 13 0 -3
BITMAP
0060
0080
0080
0100
0200
0200
0400
0800
0800
1000
2000
2000
c000
ENDCHAR
STARTCHAR zero
ENCODING 48
SWIDTH 687 0
DWIDTH 10 0
BBX 8 10 2 0
BITMAP
1e
32
63
63
e3
c7
c6
c6
4c
78
ENDCHAR
STARTCHAR one
ENCODING 49
SWIDTH 687 0
DWIDTH 10 0
BBX 5 10 3 0
BITMAP
f8
38
30
70
70
70
70
60
e0
e0
ENDCHAR
STARTCHAR two
ENCODING 50
SWIDTH 687 0
DWIDTH 10 0
BBX 9 10 1 0
BITMAP
3f00
2380
0180
0380
0300
0c00
1800
3000
e000
ff00
ENDCHAR
STARTCHAR three
ENCODING 51
SWIDTH 687 0
DWIDTH 10 0
BBX 8 10 2 0
BITMAP
3e
03
03
06
3c
06
06
06
8e
fc
ENDCHAR
STARTCHAR four
ENCODING 52
SWIDTH 687 0
DWIDTH 10 0
BBX 8 10 1 0
BITMAP
03
07
0e
16
26
66
ff
0c
0c
0c
ENDCHAR
STARTCHAR five
ENCODING 53
SWIDTH 687 0
DWIDTH 10 0
BBX 9 10 2 0
BITMAP
3f80
2000
2000
7c00
0e00
0700
0700
0700
8600
fc00
ENDCHAR
STARTCHAR six
ENCODING 54
SWIDTH 687 0
DWIDTH 10 0
BBX 9 10 2 0
BITMAP
1f80
3880
7000
7e00
e300
c300
c300
c300
6600
3c00
ENDCHAR
STARTCHAR seven
ENCODING 55
SWIDTH 687 0
DWIDTH 10 0
BBX 8 10 3 0
BITMAP
ff
02
04
0c
18
30
30
60
e0
c0
ENDCHAR
STARTCHAR eight
ENCODING 56
SWIDTH 687 0
DWIDTH 10 0
BBX 9 10 1 0
BITMAP
1f00
3180
2180
3b00
1e00
7f00
e300
c100
c300
7c00
ENDCHAR
STARTCHAR nine
ENCODING 57
SWIDTH 687 0
DWIDTH 10 0
BBX 9 10 1 0
BITMAP
1e00
3300
6180
6180
6180
6380
3f00
0700
8e00
f800
ENDCHAR
STARTCHAR colon
ENCODING 58
SWIDTH 343 0
DWIDTH 5 0
BBX 4 7 1 0
BITMAP
70
70
00
00
00
e0
e0
ENDCHAR
STARTCHAR semicolon
ENCODING 59
SWIDTH 343 0
DWIDTH 5 0
BBX 5 10 0 -3
BITMAP
38
78
00
00
00
70
f0
60
60
c0
ENDCHAR
STARTCHAR less
ENCODING 60
SWIDTH 687 0
DWIDTH 10 0
BBX 8 8 1 0
BITMAP
01
07
1c
60
e0
30
0c
02
ENDCHAR
STARTCHAR equal
ENCODING 61
SWIDTH 687 0
DWIDTH 10 0
BBX 9 5 1 1
BITMAP
7f80
0000
0000
0000
ff00
ENDCHAR
STARTCHAR greater
ENCODING 62
SWIDTH 687 0
DWIDTH 10 0
BBX 8 8 1 0
BITMAP
40
30
0c
07
06
18
e0
80
ENDCHAR
STARTCHAR question
ENCODING 63
SWIDTH 539 0
DWIDTH 8 0
BBX 7 10 2 0
BITMAP
fc
8e
06
0c
18
70
70
00
00
e0
ENDCHAR
STARTCHAR at
ENCODING 64
SWIDTH 833 0
DWIDTH 12 0
BBX 9 10 2 0
BITMAP
1e00
2100
4080
9e80
a680
a480
ac80
bf00
4000
3c00
ENDCHAR
STARTCHAR A
ENCODING 65
SWIDTH 771 0
DWIDTH 11 0
BBX 10 10 0 0
BITMAP
0700
0700
0f80
0b80
1380
1180
3f80
61c0
41c0
c1c0
ENDCHAR
STARTCHAR B
ENCODING 66
SWIDTH 660 0
DWIDTH 9 0
BBX 9 10 1 0
BITMAP
3f00
3180
3180
7100
7200
7f00
6300
6300
e300
fe00
ENDCHAR
STARTCHAR C
ENCODING 67
SWIDTH 737 0
DWIDTH 10 0
BBX 10 10 1 0
BITMAP
0fc0
1840
3000
6000
e000
c000
c000
e000
6180
3f00
ENDCHAR
STARTCHAR D
ENCODING 68
SWIDTH 822 0
DWIDTH 12 0
BBX 11 10 1 0
BITMAP
3fc0
38e0
7860
7060
7060
70e0
70c0
e1c0
e380
fe00
ENDCHAR
STARTCHAR E
ENCODING 69
SWIDTH 642 0
DWIDTH 9 0
BBX 9 10 1 0
BITMAP
3f80
3000
3000
7000
7e00
7000
6000
6000
e000
ff00
ENDCHAR
STARTCHAR F
ENCODING 70
SWIDTH 614 0
DWIDTH 9 0
BBX 9 10 1 0
BITMAP
3f80
3000
3000
7000
7e00
6000
6000
6000
e000
e000
ENDCHAR
STARTCHAR G
ENCODING 71
SWIDTH 755 0
DWIDTH 11 0
BBX 10 10 1 0
BITMAP
0fc0
1840
3000
6000
e000
c000
c380
e380
6300
3f00
ENDCHAR
STARTCHAR H
ENCODING 72
SWIDTH 813 0
DWIDTH 11 0
BBX 11 10 1 0
BITMAP
38e0
30e0
70e0
70c0
7fc0
61c0
61c0
e1c0
e180
e380
ENDCHAR
STARTCHAR I
ENCODING 73
SWIDTH 361 0
DWIDTH 5 0
BBX 5 10 1 0
BITMAP
38
38
30
70
70
70
70
60
e0
e0
ENDCHAR
STARTCHAR J
ENCODING 74
SWIDTH 502 0
DWIDTH 7 0
BBX 8 13 0 -3
BITMAP
07
07
07
06
06
0e
0e
0e
0c
0c
1c
1c
f0
ENDCHAR
STARTCHAR K
ENCODING 75
SWIDTH 753 0
DWIDTH 11 0
BBX 10 10 1 0
BITMAP
38c0
3900
3200
7600
7400
7e00
7600
6700
e300
e180
ENDCHAR
STARTCHAR L
ENCODING 76
SWIDTH 623 0
DWIDTH 9 0
BBX 8 10 1 0
BITMAP
38
38
30
70
70
70
70
60
e0
ff
ENDCHAR
STARTCHAR M
ENCODING 77
SWIDTH 940 0
DWIDTH 13 0
BBX 13 10 1 0
BITMAP
3c38
3c78
3c70
6cb0
6cb0
6d70
6f70
6e60
cc60
c0e0
ENDCHAR
STARTCHAR N
ENCODING 78
SWIDTH 789 0
DWIDTH 11 0
BBX 11 10 1 0
BITMAP
3060
3860
38c0
6cc0
6cc0
66c0
66c0
6380
c380
c180
ENDCHAR
STARTCHAR O
ENCODING 79
SWIDTH 855 0
DWIDTH 12 0
BBX 10 10 2 0
BITMAP
0f00
31c0
70c0
60c0
e0c0
c0c0
c180
e180
6300
3c00
ENDCHAR
STARTCHAR P
ENCODING 80
SWIDTH 645 0
DWIDTH 9 0
BBX 9 10 1 0
BITMAP
3f00
3180
7180
7180
7300
7e00
6000
e000
e000
e000
ENDCHAR
STARTCHAR Q
ENCODING 81
SWIDTH 855 0
DWIDTH 12 0
BBX 11 13 2 -3
BITMAP
0f00
31c0
70c0
60c0
e0c0
c0c0
c1c0
e180
6300
3e00
0780
03c0
00e0
ENDCHAR
STARTCHAR R
ENCODING 82
SWIDTH 708 0
DWIDTH 10 0
BBX 9 10 1 0
BITMAP
3f80
3180
7180
7380
7f00
7c00
6600
e600
e600
e300
ENDCHAR
STARTCHAR S
ENCODING 83
SWIDTH 639 0
DWIDTH 9 0
BBX 8 10 1 0
BITMAP
1f
31
70
78
3c
1e
0e
06
86
f8
ENDCHAR
STARTCHAR T
ENCODING 84
SWIDTH 747 0
DWIDTH 10 0
BBX 10 10 2 0
BITMAP
ffc0
1c00
1c00
1c00
1800
1800
1800
3800
3800
3800
ENDCHAR
STARTCHAR U
ENCODING 85
SWIDTH 759 0
DWIDTH 11 0
BBX 10 10 2 0
BITMAP
70c0
71c0
6180
6180
e180
e180
c380
c300
e300
3e00
ENDCHAR
STARTCHAR V
ENCODING 86
SWIDTH 765 0
DWIDTH 11 0
BBX 10 10 2 0
BITMAP
e0c0
e080
e100
6100
7200
7600
7400
7800
7800
3000
ENDCHAR
STARTCHAR W
ENCODING 87
SWIDTH 991 0
DWIDTH 14 0
BBX 12 10 2 0
BITMAP
c610
c630
ce20
ce60
ce40
d6c0
d680
e780
e700
e700
ENDCHAR
STARTCHAR X
ENCODING 88
SWIDTH 696 0
DWIDTH 10 0
BBX 11 10 0 0
BITMAP
3860
1880
1d00
0f00
0e00
0e00
1e00
3700
2300
c380
ENDCHAR
STARTCHAR Y
ENCODING 89
SWIDTH 681 0
DWIDTH 10 0
BBX 9 10 2 0
BITMAP
e180
6200
6600
3400
3800
3800
3800
3000
7000
7000
ENDCHAR
STARTCHAR Z
ENCODING 90
SWIDTH 687 0
DWIDTH 10 0
BBX 10 10 1 0
BITMAP
3fc0
0180
0300
0700
0e00
1c00
3800
3000
6000
ff00
ENDCHAR
STARTCHAR bracketleft
ENCODING 91
SWIDTH 386 0
DWIDTH 5 0
BBX 6 13 1 -3
BITMAP
3c
30
30
30
30
70
60
60
60
60
e0
f0
f0
ENDCHAR
STARTCHAR backslash
ENCODING 92
SWIDTH 566 0
DWIDTH 8 0
BBX 5 13 2 -3
BITMAP
c0
40
40
40
60
20
20
20
30
10
10
10
18
ENDCHAR
STARTCHAR bracketright
ENCODING 93
SWIDTH 386 0
DWIDTH 5 0
BBX 6 13 0 -3
BITMAP
3c
3c
1c
18
18
18
18
38
30
30
30
30
f0
ENDCHAR
STARTCHAR asciicircum
ENCODING 94
SWIDTH 687 0
DWIDTH 10 0
BBX 8 7 1 2
BITMAP
04
0c
1c
12
22
62
c1
ENDCHAR
STARTCHAR underscore
ENCODING 95
SWIDTH 500 0
DWIDTH 7 0
BBX 6 1 0 -2
BITMAP
fc
ENDCHAR
STARTCHAR grave
ENCODING 96
SWIDTH 663 0
DWIDTH 9 0
BBX 3 1 5 9
BITMAP
e0
ENDCHAR
STARTCHAR a
ENCODING 97
SWIDTH 681 0
DWIDTH 10 0
BBX 9 7 1 0
BITMAP
1f80
3380
6700
c700
cf00
f700
6700
ENDCHAR
STARTCHAR b
ENCODING 98
SWIDTH 681 0
DWIDTH 10 0
BBX 9 10 1 0
BITMAP
3800
3800
3800
7b80
7780
7d80
7980
7300
e600
fc00
ENDCHAR
STARTCHAR c
ENCODING 99
SWIDTH 548 0
DWIDTH 8 0
BBX 7 7 1 0
BITMAP
1e
72
60
e0
c0
e4
78
ENDCHAR
STARTCHAR d
ENCODING 100
SWIDTH 681 0
DWIDTH 10 0
BBX 9 10 1 0
BITMAP
0380
0380
0300
1f00
3700
6700
cf00
de00
f600
6e00
ENDCHAR
STARTCHAR e
ENCODING 101
SWIDTH 612 0
DWIDTH 9 0
BBX 8 7 1 0
BITMAP
1e
33
73
e6
fc
e1
7e
ENDCHAR
STARTCHAR f
ENCODING 102
SWIDTH 464 0
DWIDTH 6 0
BBX 8 13 1 -3
BITMAP
0f
18
38
7e
30
70
70
70
60
60
e0
e0
e0
ENDCHAR
STARTCHAR g
ENCODING 103
SWIDTH 674 0
DWIDTH 9 0
BBX 9 10 1 -3
BITMAP
0f80
3380
6300
6700
eb00
f300
6700
0600
8600
f800
ENDCHAR
STARTCHAR h
ENCODING 104
SWIDTH 675 0
DWIDTH 9 0
BBX 9 10 1 0
BITMAP
3800
3800
3800
7380
7780
7b00
7300
7300
e300
e700
ENDCHAR
STARTCHAR i
ENCODING 105
SWIDTH 343 0
DWIDTH 5 0
BBX 5 10 1 0
BITMAP
38
00
00
70
70
70
70
60
e0
e0
ENDCHAR
STARTCHAR j
ENCODING 106
SWIDTH 407 0
DWIDTH 6 0
BBX 8 13 0 -3
BITMAP
07
00
00
06
06
0e
0c
0c
0c
0c
1c
18
f0
ENDCHAR
STARTCHAR k
ENCODING 107
SWIDTH 666 0
DWIDTH 9 0
BBX 9 10 1 0
BITMAP
3800
3000
3000
7180
7200
7400
7c00
6e00
e600
e700
ENDCHAR
STARTCHAR l
ENCODING 108
SWIDTH 343 0
DWIDTH 5 0
BBX 5 10 1 0
BITMAP
38
38
30
70
70
70
70
60
e0
e0
ENDCHAR
STARTCHAR m
ENCODING 109
SWIDTH 991 0
DWIDTH 14 0
BBX 13 7 1 0
BITMAP
7738
7f78
6bf8
77b0
6730
e730
e630
ENDCHAR
STARTCHAR n
ENCODING 110
SWIDTH 675 0
DWIDTH 9 0
BBX 9 7 1 0
BITMAP
7380
7780
7b00
7300
7300
e300
e700
ENDCHAR
STARTCHAR o
ENCODING 111
SWIDTH 663 0
DWIDTH 9 0
BBX 8 7 2 0
BITMAP
1e
66
67
c6
c6
cc
78
ENDCHAR
STARTCHAR p
ENCODING 112
SWIDTH 681 0
DWIDTH 10 0
BBX 9 10 1 -3
BITMAP
3b00
3780
7d80
7980
7300
7600
7c00
e000
e000
e000
ENDCHAR
STARTCHAR q
ENCODING 113
SWIDTH 681 0
DWIDTH 10 0
BBX 9 10 1 -3
BITMAP
1f80
3380
6700
c700
df00
f700
6700
0600
0e00
0e00
ENDCHAR
STARTCHAR r
ENCODING 114
SWIDTH 542 0
DWIDTH 8 0
BBX 8 7 1 0
BITMAP
77
7e
70
70
60
e0
e0
ENDCHAR
STARTCHAR s
ENCODING 115
SWIDTH 527 0
DWIDTH 7 0
BBX 7 7 1 0
BITMAP
1e
32
78
3c
1c
8c
f8
ENDCHAR
STARTCHAR t
ENCODING 116
SWIDTH 437 0
DWIDTH 6 0
BBX 5 9 2 0
BITMAP
70
70
f8
60
60
e0
c0
f0
70
ENDCHAR
STARTCHAR u
ENCODING 117
SWIDTH 675 0
DWIDTH 9 0
BBX 9 7 1 0
BITMAP
7380
6380
6700
6700
6f00
f700
e700
ENDCHAR
STARTCHAR v
ENCODING 118
SWIDTH 630 0
DWIDTH 9 0
BBX 9 7 1 0
BITMAP
e180
e300
6200
7400
7c00
7800
7000
ENDCHAR
STARTCHAR w
ENCODING 119
SWIDTH 878 0
DWIDTH 12 0
BBX 12 7 2 0
BITMAP
c630
c620
ca40
db40
d380
e380
e300
ENDCHAR
STARTCHAR x
ENCODING 120
SWIDTH 563 0
DWIDTH 8 0
BBX 9 7 0 0
BITMAP
3980
3a00
1c00
1c00
1c00
2e00
c700
ENDCHAR
STARTCHAR y
ENCODING 121
SWIDTH 633 0
DWIDTH 9 0
BBX 10 10 0 -3
BITMAP
70c0
7180
3300
3a00
3c00
3c00
3800
1000
3000
e000
ENDCHAR
STARTCHAR z
ENCODING 122
SWIDTH 630 0
DWIDTH 9 0
BBX 9 7 0 0
BITMAP
7f80
0300
0e00
1c00
3000
6000
ff00
ENDCHAR
STARTCHAR braceleft
ENCODING 123
SWIDTH 386 0
DWIDTH 5 0
BBX 6 13 1 -3
BITMAP
1c
3c
38
38
18
30
c0
70
70
70
e0
f0
60
ENDCHAR
STARTCHAR bar
ENCODING 124
SWIDTH 259 0
DWIDTH 4 0
BBX 4 13 1 -3
BITMAP
10
10
20
20
20
20
60
40
40
40
40
80
80
ENDCHAR
STARTCHAR braceright
ENCODING 125
SWIDTH 386 0
DWIDTH 5 0
BBX 6 13 0 -3
BITMAP
18
3c
1c
38
38
38
1c
30
60
70
70
f0
e0
ENDCHAR
STARTCHAR asciitilde
ENCODING 126
SWIDTH 687 0
DWIDTH 10 0
BBX 9 3 1 2
BITMAP
7080
c980
8700
ENDCHAR
STARTCHAR nobreakspace
ENCODING 160
SWIDTH 343 0
DWIDTH 5 0
BBX 1 1 0 0
BITMAP
00
ENDCHAR
STARTCHAR Aogonek
ENCODING 161
SWIDTH 771 0
DWIDTH 11 0
BBX 10 11 0 -1
BITMAP
0700
0700
0f80
0b80
1380
1180
3f80
61c0
41c0
c1c0
1c00
ENDCHAR
STARTCHAR breve
ENCODING 162
SWIDTH 663 0
DWIDTH 9 0
BBX 5 1 4 9
BITMAP
f8
ENDCHAR
STARTCHAR Lstroke
ENCODING 163
SWIDTH 623 0
DWIDTH 9 0
BBX 8 10 1 0
BITMAP
18
38
38
3c
3c
70
f0
f0
70
7f
ENDCHAR
STARTCHAR currency
ENCODING 164
SWIDTH 687 0
DWIDTH 10 0
BBX 11 10 0 0
BITMAP
2020
2060
1680
1900
1180
3100
1300
3f00
c080
8080
ENDCHAR
STARTCHAR Lcaron
ENCODING 165
SWIDTH 792 0
DWIDTH 11 0
BBX 10 11 1 0
BITMAP
01c0
3bc0
3980
3380
7000
7000
7000
7000
6000
e000
ff00
ENDCHAR
STARTCHAR Sacute
ENCODING 166
SWIDTH 639 0
DWIDTH 9 0
BBX 8 12 1 0
BITMAP
0f
00
1f
31
70
78
3c
1e
0e
06
86
f8
ENDCHAR
STARTCHAR section
ENCODING 167
SWIDTH 687 0
DWIDTH 10 0
BBX 9 13 1 -3
BITMAP
1f80
3880
3800
3e00
1f00
2700
6100
7900
7e00
1f00
0700
8600
fc00
ENDCHAR
STARTCHAR diaeresis
ENCODING 168
SWIDTH 663 0
DWIDTH 9 0
BBX 5 1 4 9
BITMAP
d8
ENDCHAR
STARTCHAR Scaron
ENCODING 169
SWIDTH 639 0
DWIDTH 9 0
BBX 8 12 1 0
BITMAP
1f
00
1f
31
70
78
3c
1e
0e
06
86
f8
ENDCHAR
STARTCHAR Scedilla
ENCODING 170
SWIDTH 639 0
DWIDTH 9 0
BBX 8 13 1 -3
BITMAP
1f
31
70
78
3c
1e
0e
06
86
f8
18
08
38
ENDCHAR
STARTCHAR Tcaron
ENCODING 171
SWIDTH 747 0
DWIDTH 10 0
BBX 10 12 2 0
BITMAP
1f00
0000
ffc0
1c00
1c00
1c00
1800
1800
1800
3800
3800
3800
ENDCHAR
STARTCHAR Zacute
ENCODING 172
SWIDTH 687 0
DWIDTH 10 0
BBX 10 12 1 0
BITMAP
0780
0000
3fc0
0180
0300
0700
0e00
1c00
3800
3000
6000
ff00
ENDCHAR
STARTCHAR hyphen
ENCODING 173
SWIDTH 289 0
DWIDTH 4 0
BBX 3 1 1 4
BITMAP
e0
ENDCHAR
STARTCHAR Zcaron
ENCODING 174
SWIDTH 687 0
DWIDTH 10 0
BBX 10 12 1 0
BITMAP
0f80
0000
3fc0
0180
0300
0700
0e00
1c00
3800
3000
6000
ff00
ENDCHAR
STARTCHAR Zabovedot
ENCODING 175
SWIDTH 687 0
DWIDTH 10 0
BBX 10 12 1 0
BITMAP
0300
0000
3fc0
0180
0300
0700
0e00
1c00
3800
3000
6000
ff00
ENDCHAR
STARTCHAR degree
ENCODING 176
SWIDTH 241 0
DWIDTH 3 0
BBX 1 2 3 8
BITMAP
80
80
ENDCHAR
STARTCHAR aogonek
ENCODING 177
SWIDTH 681 0
DWIDTH 10 0
BBX 9 8 1 -1
BITMAP
1f80
3380
6700
c700
cf00
f700
6700
1c00
ENDCHAR
STARTCHAR ogonek
ENCODING 178
SWIDTH 663 0
DWIDTH 9 0
BBX 3 1 3 -3
BITMAP
e0
ENDCHAR
STARTCHAR lstroke
ENCODING 179
SWIDTH 343 0
DWIDTH 5 0
BBX 6 10 1 0
BITMAP
18
38
3c
3c
38
f0
f0
70
60
60
ENDCHAR
STARTCHAR acute
ENCODING 180
SWIDTH 663 0
DWIDTH 9 0
BBX 4 1 5 9
BITMAP
f0
ENDCHAR
STARTCHAR lcaron
ENCODING 181
SWIDTH 720 0
DWIDTH 10 0
BBX 10 11 1 0
BITMAP
01c0
3bc0
3980
3380
7000
7000
7000
7000
6000
e000
e000
ENDCHAR
STARTCHAR sacute
ENCODING 182
SWIDTH 527 0
DWIDTH 7 0
BBX 7 9 1 0
BITMAP
1e
00
1e
32
78
3c
1c
8c
f8
ENDCHAR
STARTCHAR caron
ENCODING 183
SWIDTH 663 0
DWIDTH 9 0
BBX 5 1 4 9
BITMAP
f8
ENDCHAR
STARTCHAR cedilla
ENCODING 184
SWIDTH 663 0
DWIDTH 9 0
BBX 3 3 3 -3
BITMAP
60
20
e0
ENDCHAR
STARTCHAR scaron
ENCODING 185
SWIDTH 527 0
DWIDTH 7 0
BBX 7 9 1 0
BITMAP
3e
00
1e
32
78
3c
1c
8c
f8
ENDCHAR
STARTCHAR scedilla
ENCODING 186
SWIDTH 527 0
DWIDTH 7 0
BBX 7 10 1 -3
BITMAP
1e
32
78
3c
1c
8c
f8
18
08
38
ENDCHAR
STARTCHAR tcaron
ENCODING 187
SWIDTH 720 0
DWIDTH 10 0
BBX 9 12 2 0
BITMAP
0380
0780
0300
7700
7000
f800
6000
6000
e000
c000
f000
7000
ENDCHAR
STARTCHAR zacute
ENCODING 188
SWIDTH 630 0
DWIDTH 9 0
BBX 9 9 0 0
BITMAP
1e00
0000
7f80
0300
0e00
1c00
3000
6000
ff00
ENDCHAR
STARTCHAR doubleacute
ENCODING 189
SWIDTH 663 0
DWIDTH 9 0
BBX 6 1 4 9
BITMAP
fc
ENDCHAR
STARTCHAR zcaron
ENCODING 190
SWIDTH 630 0
DWIDTH 9 0
BBX 9 9 0 0
BITMAP
3e00
0000
7f80
0300
0e00
1c00
3000
6000
ff00
ENDCHAR
STARTCHAR zabovedot
ENCODING 191
SWIDTH 630 0
DWIDTH 9 0
BBX 9 9 0 0
BITMAP
0c00
0000
7f80
0300
0e00
1c00
3000
6000
ff00
ENDCHAR
STARTCHAR Racute
ENCODING 192
SWIDTH 708 0
DWIDTH 10 0
BBX 9 12 1 0
BITMAP
0f00
0000
3f80
3180
7180
7380
7f00
7c00
6600
e600
e600
e300
ENDCHAR
STARTCHAR Aacute
ENCODING 193
SWIDTH 771 0
DWIDTH 11 0
BBX 10 12 0 0
BITMAP
03c0
0000
0700
0700
0f80
0b80
1380
1180
3f80
61c0
41c0
c1c0
ENDCHAR
STARTCHAR Acircumflex
ENCODING 194
SWIDTH 771 0
DWIDTH 11 0
BBX 10 12 0 0
BITMAP
07c0
0000
0700
0700
0f80
0b80
1380
1180
3f80
61c0
41c0
c1c0
ENDCHAR
STARTCHAR Abreve
ENCODING 195
SWIDTH 771 0
DWIDTH 11 0
BBX 10 12 0 0
BITMAP
0f80
0000
0700
0700
0f80
0b80
1380
1180
3f80
61c0
41c0
c1c0
ENDCHAR
STARTCHAR Adiaeresis
ENCODING 196
SWIDTH 771 0
DWIDTH 11 0
BBX 10 12 0 0
BITMAP
06c0
0000
0700
0700
0f80
0b80
1380
1180
3f80
61c0
41c0
c1c0
ENDCHAR
STARTCHAR Lacute
ENCODING 197
SWIDTH 623 0
DWIDTH 9 0
BBX 8 12 1 0
BITMAP
3c
00
38
38
30
70
70
70
70
60
e0
ff
ENDCHAR
STARTCHAR Cacute
ENCODING 198
SWIDTH 737 0
DWIDTH 10 0
BBX 10 12 1 0
BITMAP
0780
0000
0fc0
1840
3000
6000
e000
c000
c000
e000
6180
3f00
ENDCHAR
STARTCHAR Ccedilla
ENCODING 199
SWIDTH 737 0
DWIDTH 10 0
BBX 10 13 1 -3
BITMAP
0fc0
1840
3000
6000
e000
c000
c000
e000
6180
3f00
1000
0800
3800
ENDCHAR
STARTCHAR Ccaron
ENCODING 200
SWIDTH 737 0
DWIDTH 10 0
BBX 10 12 1 0
BITMAP
0f80
0000
0fc0
1840
3000
6000
e000
c000
c000
e000
6180
3f00
ENDCHAR
STARTCHAR Eacute
ENCODING 201
SWIDTH 642 0
DWIDTH 9 0
BBX 9 12 1 0
BITMAP
0f00
0000
3f80
3000
3000
7000
7e00
7000
6000
6000
e000
ff00
ENDCHAR
STARTCHAR Eogonek
ENCODING 202
SWIDTH 642 0
DWIDTH 9 0
BBX 9 11 1 -1
BITMAP
3f80
3000
3000
7000
7e00
7000
6000
6000
e000
ff00
1c00
ENDCHAR
STARTCHAR Ediaeresis
ENCODING 203
SWIDTH 642 0
DWIDTH 9 0
BBX 9 12 1 0
BITMAP
1b00
0000
3f80
3000
3000
7000
7e00
7000
6000
6000
e000
ff00
ENDCHAR
STARTCHAR Ecaron
ENCODING 204
SWIDTH 642 0
DWIDTH 9 0
BBX 9 12 1 0
BITMAP
1f00
0000
3f80
3000
3000
7000
7e00
7000
6000
6000
e000
ff00
ENDCHAR
STARTCHAR Iacute
ENCODING 205
SWIDTH 361 0
DWIDTH 5 0
BBX 6 12 1 0
BITMAP
3c
00
38
38
30
70
70
70
70
60
e0
e0
ENDCHAR
STARTCHAR Icircumflex
ENCODING 206
SWIDTH 361 0
DWIDTH 5 0
BBX 6 12 1 0
BITMAP
7c
00
38
38
30
70
70
70
70
60
e0
e0
ENDCHAR
STARTCHAR Dcaron
ENCODING 207
SWIDTH 822 0
DWIDTH 12 0
BBX 11 12 1 0
BITMAP
0f80
0000
3fc0
38e0
7860
7060
7060
70e0
70c0
e1c0
e380
fe00
ENDCHAR
STARTCHAR Dstroke
ENCODING 208
SWIDTH 822 0
DWIDTH 12 0
BBX 11 10 1 0
BITMAP
3fc0
38e0
3860
3860
fe60
70e0
70c0
71c0
6380
fe00
ENDCHAR
STARTCHAR Nacute
ENCODING 209
SWIDTH 789 0
DWIDTH 11 0
BBX 11 12 1 0
BITMAP
0780
0000
3060
3860
38c0
6cc0
6cc0
66c0
66c0
6380
c380
c180
ENDCHAR
STARTCHAR Ncaron
ENCODING 210
SWIDTH 789 0
DWIDTH 11 0
BBX 11 12 1 0
BITMAP
0f80
0000
3060
3860
38c0
6cc0
6cc0
66c0
66c0
6380
c380
c180
ENDCHAR
STARTCHAR Oacute
ENCODING 211
SWIDTH 855 0
DWIDTH 12 0
BBX 10 12 2 0
BITMAP
0780
0000
0f00
31c0
70c0
60c0
e0c0
c0c0
c180
e180
6300
3c00
ENDCHAR
STARTCHAR Ocircumflex
ENCODING 212
SWIDTH 855 0
DWIDTH 12 0
BBX 10 12 2 0
BITMAP
0f80
0000
0f00
31c0
70c0
60c0
e0c0
c0c0
c180
e180
6300
3c00
ENDCHAR
STARTCHAR Odoubleacute
ENCODING 213
SWIDTH 855 0
DWIDTH 12 0
BBX 10 12 2 0
BITMAP
0fc0
0000
0f00
31c0
70c0
60c0
e0c0
c0c0
c180
e180
6300
3c00
ENDCHAR
STARTCHAR Odiaeresis
ENCODING 214
SWIDTH 855 0
DWIDTH 12 0
BBX 10 12 2 0
BITMAP
0d80
0000
0f00
31c0
70c0
60c0
e0c0
c0c0
c180
e180
6300
3c00
ENDCHAR
STARTCHAR multiply
ENCODING 215
SWIDTH 687 0
DWIDTH 10 0
BBX 9 8 1 0
BITMAP
6080
2180
1600
1c00
1c00
3400
c200
8300
ENDCHAR
STARTCHAR Rcaron
ENCODING 216
SWIDTH 708 0
DWIDTH 10 0
BBX 9 12 1 0
BITMAP
1f00
0000
3f80
3180
7180
7380
7f00
7c00
6600
e600
e600
e300
ENDCHAR
STARTCHAR Uring
ENCODING 217
SWIDTH 759 0
DWIDTH 11 0
BBX 10 12 2 0
BITMAP
0600
0000
70c0
71c0
6180
6180
e180
e180
c380
c300
e300
3e00
ENDCHAR
STARTCHAR Uacute
ENCODING 218
SWIDTH 759 0
DWIDTH 11 0
BBX 10 12 2 0
BITMAP
0f00
0000
70c0
71c0
6180
6180
e180
e180
c380
c300
e300
3e00
ENDCHAR
STARTCHAR Udoubleacute
ENCODING 219
SWIDTH 759 0
DWIDTH 11 0
BBX 10 12 2 0
BITMAP
1f80
0000
70c0
71c0
6180
6180
e180
e180
c380
c300
e300
3e00
ENDCHAR
STARTCHAR Udiaeresis
ENCODING 220
SWIDTH 759 0
DWIDTH 11 0
BBX 10 12 2 0
BITMAP
1b00
0000
70c0
71c0
6180
6180
e180
e180
c380
c300
e300
3e00
ENDCHAR
STARTCHAR Yacute
ENCODING 221
SWIDTH 681 0
DWIDTH 10 0
BBX 9 12 2 0
BITMAP
1e00
0000
e180
6200
6600
3400
3800
3800
3800
3000
7000
7000
ENDCHAR
STARTCHAR Tcedilla
ENCODING 222
SWIDTH 747 0
DWIDTH 10 0
BBX 10 13 2 -3
BITMAP
ffc0
1c00
1c00
1c00
1800
1800
1800
3800
3800
3800
0c00
0400
1c00
ENDCHAR
STARTCHAR ssharp
ENCODING 223
SWIDTH 708 0
DWIDTH 10 0
BBX 9 13 1 -3
BITMAP
0f00
1b80
3b00
3600
3600
3700
7380
7380
6980
6f00
6000
e000
e000
ENDCHAR
STARTCHAR racute
ENCODING 224
SWIDTH 542 0
DWIDTH 8 0
BBX 8 9 1 0
BITMAP
1e
00
77
7e
70
70
60
e0
e0
ENDCHAR
STARTCHAR aacute
ENCODING 225
SWIDTH 681 0
DWIDTH 10 0
BBX 9 9 1 0
BITMAP
0f00
0000
1f80
3380
6700
c700
cf00
f700
6700
ENDCHAR
STARTCHAR acircumflex
ENCODING 226
SWIDTH 681 0
DWIDTH 10 0
BBX 9 9 1 0
BITMAP
1f00
0000
1f80
3380
6700
c700
cf00
f700
6700
ENDCHAR
STARTCHAR abreve
ENCODING 227
SWIDTH 681 0
DWIDTH 10 0
BBX 9 9 1 0
BITMAP
1f00
0000
1f80
3380
6700
c700
cf00
f700
6700
ENDCHAR
STARTCHAR adiaeresis
ENCODING 228
SWIDTH 681 0
DWIDTH 10 0
BBX 9 9 1 0
BITMAP
1b00
0000
1f80
3380
6700
c700
cf00
f700
6700
ENDCHAR
STARTCHAR lacute
ENCODING 229
SWIDTH 343 0
DWIDTH 5 0
BBX 6 12 1 0
BITMAP
3c
00
38
38
30
70
70
70
70
60
e0
e0
ENDCHAR
STARTCHAR cacute
ENCODING 230
SWIDTH 548 0
DWIDTH 8 0
BBX 7 9 1 0
BITMAP
3c
00
1e
72
60
e0
c0
e4
78
ENDCHAR
STARTCHAR ccedilla
ENCODING 231
SWIDTH 548 0
DWIDTH 8 0
BBX 7 10 1 -3
BITMAP
1e
72
60
e0
c0
e4
78
20
10
70
ENDCHAR
STARTCHAR ccaron
ENCODING 232
SWIDTH 548 0
DWIDTH 8 0
BBX 7 9 1 0
BITMAP
7c
00
1e
72
60
e0
c0
e4
78
ENDCHAR
STARTCHAR eacute
ENCODING 233
SWIDTH 612 0
DWIDTH 9 0
BBX 8 9 1 0
BITMAP
0f
00
1e
33
73
e6
fc
e1
7e
ENDCHAR
STARTCHAR eogonek
ENCODING 234
SWIDTH 612 0
DWIDTH 9 0
BBX 8 8 1 -1
BITMAP
1e
33
73
e6
fc
e1
7e
38
ENDCHAR
STARTCHAR ediaeresis
ENCODING 235
SWIDTH 612 0
DWIDTH 9 0
BBX 8 9 1 0
BITMAP
1b
00
1e
33
73
e6
fc
e1
7e
ENDCHAR
STARTCHAR ecaron
ENCODING 236
SWIDTH 612 0
DWIDTH 9 0
BBX 8 9 1 0
BITMAP
3e
00
1e
33
73
e6
fc
e1
7e
ENDCHAR
STARTCHAR iacute
ENCODING 237
SWIDTH 343 0
DWIDTH 5 0
BBX 6 9 1 0
BITMAP
3c
00
70
70
60
60
60
e0
e0
ENDCHAR
STARTCHAR icircumflex
ENCODING 238
SWIDTH 343 0
DWIDTH 5 0
BBX 6 9 1 0
BITMAP
7c
00
70
70
60
60
60
e0
e0
ENDCHAR
STARTCHAR dcaron
ENCODING 239
SWIDTH 1080 0
DWIDTH 15 0
BBX 14 11 1 0
BITMAP
001c
03bc
0398
0338
1f00
3700
6700
cf00
de00
f600
6e00
ENDCHAR
STARTCHAR dstroke
ENCODING 240
SWIDTH 936 0
DWIDTH 13 0
BBX 12 10 1 0
BITMAP
0380
0180
fff0
1f00
3700
6700
cf00
de00
f600
6e00
ENDCHAR
STARTCHAR nacute
ENCODING 241
SWIDTH 675 0
DWIDTH 9 0
BBX 9 9 1 0
BITMAP
1e00
0000
7380
7780
7b00
7300
7300
e300
e700
ENDCHAR
STARTCHAR ncaron
ENCODING 242
SWIDTH 675 0
DWIDTH 9 0
BBX 9 9 1 0
BITMAP
3e00
0000
7380
7780
7b00
7300
7300
e300
e700
ENDCHAR
STARTCHAR oacute
ENCODING 243
SWIDTH 663 0
DWIDTH 9 0
BBX 8 9 2 0
BITMAP
0f
00
1e
66
67
c6
c6
cc
78
ENDCHAR
STARTCHAR ocircumflex
ENCODING 244
SWIDTH 663 0
DWIDTH 9 0
BBX 8 9 2 0
BITMAP
1f
00
1e
66
67
c6
c6
cc
78
ENDCHAR
STARTCHAR odoubleacute
ENCODING 245
SWIDTH 663 0
DWIDTH 9 0
BBX 8 9 2 0
BITMAP
7e
00
1e
66
67
c6
c6
cc
78
ENDCHAR
STARTCHAR odiaeresis
ENCODING 246
SWIDTH 663 0
DWIDTH 9 0
BBX 8 9 2 0
BITMAP
1b
00
1e
66
67
c6
c6
cc
78
ENDCHAR
STARTCHAR division
ENCODING 247
SWIDTH 687 0
DWIDTH 10 0
BBX 8 8 2 0
BITMAP
1c
00
00
ff
00
00
00
38
ENDCHAR
STARTCHAR rcaron
ENCODING 248
SWIDTH 542 0
DWIDTH 8 0
BBX 8 9 1 0
BITMAP
3e
00
77
7e
70
70
60
e0
e0
ENDCHAR
STARTCHAR uring
ENCODING 249
SWIDTH 675 0
DWIDTH 9 0
BBX 9 9 1 0
BITMAP
0c00
0000
7380
6380
6700
6700
6f00
f700
e700
ENDCHAR
STARTCHAR uacute
ENCODING 250
SWIDTH 675 0
DWIDTH 9 0
BBX 9 9 1 0
BITMAP
0f00
0000
7380
6380
6700
6700
6f00
f700
e700
ENDCHAR
STARTCHAR udoubleacute
ENCODING 251
SWIDTH 675 0
DWIDTH 9 0
BBX 9 9 1 0
BITMAP
3f00
0000
7380
6380
6700
6700
6f00
f700
e700
ENDCHAR
STARTCHAR udiaeresis
ENCODING 252
SWIDTH 675 0
DWIDTH 9 0
BBX 9 9 1 0
BITMAP
1b00
0000
7380
6380
6700
6700
6f00
f700
e700
ENDCHAR
STARTCHAR yacute
ENCODING 253
SWIDTH 633 0
DWIDTH 9 0
BBX 10 12 0 -3
BITMAP
0780
0000
70c0
7180
3300
3a00
3c00
3c00
3800
1000
3000
e000
ENDCHAR
STARTCHAR tcedilla
ENCODING 254
SWIDTH 437 0
DWIDTH 6 0
BBX 5 12 2 -3
BITMAP
70
70
f8
60
60
e0
c0
f0
70
30
10
70
ENDCHAR
STARTCHAR abovedot
ENCODING 255
SWIDTH 663 0
DWIDTH 9 0
BBX 2 1 6 9
BITMAP
c0
ENDCHAR
ENDFONT
